<?xml version="1.0" encoding="UTF-8"?>
<svg enable-background="new 0 0 64 64" version="1.1" viewBox="0 0 64 64" xml:space="preserve" xmlns="http://www.w3.org/2000/svg">
<style type="text/css">
    svg {
        filter: drop-shadow(0 0 8px #0008);
    }
	@keyframes spin {
		from {
			transform: rotate(0deg);
		}
		to {
			transform: rotate(360deg);
		}
	}
	.anim {
		transform-origin: center center; 
		animation-timing-function: linear;
		animation-name: spin;
		animation-iteration-count: infinite;
        --speed: 0.25;
	}
	.static1, .static2 { fill: #888f; }
	.ring1 { fill: #888f; animation-duration: calc(360s * var(--speed)); }
	.ring2 { fill: none; stroke: #888f; stroke-width: 0.2; stroke-miterlimit: 10; animation-duration: calc(192s * var(--speed)); animation-direction: reverse; }
	.ring3 { fill: #888f; animation-duration: calc(48s * var(--speed)); }
	.ring4 { fill: #888f; animation-duration: calc(32s * var(--speed)); animation-direction: reverse; }
	.ring5 { fill: #888f; animation-duration: calc(128s * var(--speed)); }
</style>
<path class="static2" d="m32 55.886c-13.171 0-23.886-10.715-23.886-23.886 0-13.17 10.715-23.886 23.886-23.886 13.17 0 23.886 10.716 23.886 23.886 0 13.171-10.716 23.886-23.886 23.886zm0-47.53c-13.037 0-23.644 10.607-23.644 23.644s10.607 23.643 23.644 23.643 23.644-10.606 23.644-23.643-10.606-23.644-23.644-23.644z"/>
<path class="static1" d="M32,60.973c-7.739,0-15.015-3.014-20.487-8.486S3.027,39.739,3.027,32s3.014-15.015,8.486-20.487  C16.985,6.04,24.261,3.027,32,3.027s15.014,3.014,20.487,8.486c5.472,5.472,8.486,12.748,8.486,20.487s-3.014,15.015-8.486,20.487  S39.739,60.973,32,60.973z M32,3.116C16.074,3.116,3.117,16.074,3.117,32S16.074,60.883,32,60.883S60.883,47.926,60.883,32  S47.926,3.116,32,3.116z"/>
<path class="ring1 anim" d="m18.336 5.776l-0.65-1.126c1.126-0.59 2.293-1.113 3.495-1.564l0.901 0.595c3.105-1.088 6.442-1.681 9.918-1.681 3.475 0 6.813 0.593 9.918 1.681l0.901-0.595c1.203 0.45 2.37 0.974 3.495 1.564l-0.65 1.126c-4.087-2.134-8.734-3.343-13.664-3.343s-9.577 1.209-13.664 3.343zm43.201 24.946h1.299c-0.052-1.293-0.185-2.565-0.391-3.812l-0.964-0.482c-1.28-6.816-4.865-12.82-9.916-17.169l0.065-1.078c-0.985-0.812-2.021-1.564-3.102-2.251l-0.65 1.126c7.893 5.034 13.235 13.713 13.659 23.666zm-45.415-23.667l-0.65-1.126c-1.082 0.687-2.118 1.438-3.103 2.251l0.065 1.078c-5.05 4.35-8.634 10.353-9.915 17.17l-0.964 0.482c-0.207 1.247-0.339 2.519-0.391 3.812h1.299c0.424-9.953 5.766-18.632 13.659-23.667zm15.878 54.512c-4.93 0-9.577-1.208-13.665-3.342l-0.65 1.126c1.126 0.591 2.293 1.114 3.495 1.564l0.901-0.595c3.106 1.087 6.443 1.68 9.919 1.68 3.475 0 6.813-0.593 9.918-1.681l0.901 0.595c1.202-0.45 2.369-0.973 3.495-1.564l-0.65-1.126c-4.087 2.134-8.734 3.343-13.664 3.343zm-29.537-28.289h-1.3c0.052 1.293 0.185 2.565 0.391 3.811l0.964 0.482c1.281 6.817 4.865 12.82 9.916 17.169l-0.065 1.078c0.985 0.812 2.021 1.564 3.103 2.251l0.65-1.126c-7.893-5.033-13.235-13.712-13.659-23.665zm45.415 23.667l0.65 1.126c1.082-0.687 2.118-1.439 3.103-2.251l-0.065-1.079c5.051-4.349 8.635-10.353 9.916-17.17l0.964-0.482c0.207-1.246 0.339-2.518 0.391-3.811h-1.299c-0.425 9.953-5.767 18.632-13.66 23.667z"/>
<path class="ring2 anim" d="m7.5625 32h-2.9435m27.381-25v0.5625m-0.8721-0.5368l0.0195 0.5583m-0.8909-0.518l0.0393 0.5622m-0.9083-0.4851l0.0581 0.5527m-0.924-0.4456l0.0778 0.5531m-0.9409-0.4251l0.0986 0.559m-0.9536-0.385l0.1154 0.5428m-0.9669-0.352l0.1356 0.5438m-0.9779-0.3161l0.1547 0.5396m-0.9885-0.2826l0.1722 0.5298m-1-0.2538l0.1919 0.5273m-1.0032-0.2056l0.2087 0.5165m-1.0127-0.1777l0.2279 0.5118m-1.0186-0.1432l0.2441 0.5005m-1.0191-0.0997l0.2598 0.4886m-1.0258-0.071l0.2817 0.4879m-1.0258-0.0324l0.2944 0.4712m-1.0254 0.0049l0.3074 0.4556m-1.0248 0.0407l0.3297 0.4537m-1.0214 0.0778l0.3414 0.437m-1.021 0.1096l0.3569 0.4253m-1.0146 0.1476l0.3699 0.4108m-1.0051 0.1869l0.3843 0.398m-1.0061 0.2136l0.4031 0.3893m-0.9933 0.2529l0.4086 0.3679m-0.9811 0.2901l0.4226 0.3546m-0.9763 0.3193l0.4415 0.3449m-0.5149 0.6798l-1.02-0.741m-1.2337 0.2495l1.7593 1.1866m-0.4605 0.7181l-2.4913-1.5567m-0.4833 0.824l2.5357 1.464m-0.4168 0.7442l-2.592-1.3782m-0.4255 0.8553l2.6287 1.2821m-0.3574 0.7746l-2.6849-1.1954m-0.3652 0.8829l2.716 1.0974m-0.3109 0.7944l-2.7571-1.0035m-0.3026 0.9063l2.7863 0.9053m-0.2473 0.8163l-2.8278-0.8109m-0.2379 0.9255l2.8422 0.7087m-0.1918 0.8311l-2.8752-0.6111m-0.1712 0.94l2.8885 0.5093m-0.1338 0.8424l-2.9152-0.4097m-0.1033 0.9499l2.9109 0.306m-0.0675 0.8502l-2.9402-0.2056m-0.0345 0.9548l2.9305 0.1024m51.797 0.8526h-2.9435m-23.565-24.974l-0.0194 0.5583m0.8908-0.518l-0.0393 0.5622m0.9083-0.4851l-0.0581 0.5527m0.924-0.4456l-0.0778 0.5531m0.9409-0.4251l-0.0986 0.559m0.9536-0.385l-0.1153 0.5428m0.9668-0.352l-0.1356 0.5438m0.9779-0.3161l-0.1547 0.5396m0.9885-0.2826l-0.1722 0.5298m1-0.2538l-0.1919 0.5273m1.0032-0.2056l-0.2087 0.5165m1.0127-0.1777l-0.2279 0.5118m1.0186-0.1432l-0.2441 0.5005m1.0191-0.0997l-0.2598 0.4886m1.0258-0.071l-0.2817 0.4879m1.0258-0.0324l-0.2944 0.4712m1.0254 0.0049l-0.3074 0.4556m1.0248 0.0407l-0.3297 0.4537m1.0214 0.0778l-0.3414 0.437m1.021 0.1096l-0.3569 0.4253m1.0146 0.1476l-0.3699 0.4108m1.0051 0.1869l-0.3843 0.398m1.0061 0.2136l-0.4031 0.3893m0.9933 0.2529l-0.4086 0.3679m0.9811 0.2901l-0.4226 0.3546m0.9763 0.3193l-0.4415 0.3449m0.5149 0.6798l1.02-0.741m1.2337 0.2495l-1.7593 1.1866m0.4605 0.7181l2.4913-1.5567m0.4833 0.824l-2.5357 1.464m3.0088-0.634l-2.592 1.3782m3.0175-0.5229l-2.6287 1.2821m0.3574 0.7746l2.6849-1.1954m0.3652 0.8829l-2.716 1.0974m0.3109 0.7944l2.7571-1.0035m0.3026 0.9063l-2.7863 0.9053m0.2473 0.8163l2.8278-0.8109m0.2379 0.9255l-2.8422 0.7087m0.1918 0.8311l2.8752-0.6111m0.1712 0.94l-2.8885 0.5093m0.1338 0.8424l2.9152-0.4097m0.1033 0.9499l-2.9109 0.306m0.0675 0.8502l2.9402-0.2056m0.0345 0.9548l-2.9305 0.1024m-24.416 25.853v-0.5625m-0.8721 0.5368l0.0195-0.5583m-0.8909 0.518l0.0393-0.5622m-0.9083 0.4851l0.0581-0.5527m-0.924 0.4456l0.0778-0.5531m-0.9409 0.4251l0.0986-0.559m-0.9536 0.385l0.1154-0.5428m-0.9669 0.352l0.1356-0.5438m-0.9779 0.3161l0.1547-0.5396m-0.9885 0.2826l0.1722-0.5298m-1 0.2538l0.1919-0.5273m-1.0032 0.2056l0.2087-0.5165m-1.0127 0.1777l0.2279-0.5118m-1.0186 0.1432l0.2441-0.5005m-1.0191 0.0997l0.2598-0.4886m-1.0258 0.071l0.2817-0.4879m-1.0258 0.0324l0.2944-0.4712m-1.0254-0.0049l0.3074-0.4556m-1.0248-0.0407l0.3297-0.4537m-1.0214-0.0778l0.3414-0.437m-1.021-0.1096l0.3569-0.4253m-1.0146-0.1476l0.3699-0.4108m-1.0051-0.1869l0.3843-0.398m-1.0061-0.2136l0.4031-0.3893m-0.9933-0.2529l0.4086-0.3679m-0.9811-0.2901l0.4226-0.3546m-0.9763-0.3193l0.4415-0.3449m-0.5149-0.6798l-1.02 0.741m-1.2337-0.2495l1.7593-1.1866m-0.4605-0.7181l-2.4913 1.5567m-0.4833-0.824l2.5357-1.464m-0.4168-0.7442l-2.592 1.3782m-0.4255-0.8553l2.6287-1.2821m-0.3574-0.7746l-2.6849 1.1954m-0.3652-0.8829l2.716-1.0974m-0.3109-0.7944l-2.7571 1.0035m-0.3026-0.9063l2.7863-0.9053m-0.2473-0.8163l-2.8278 0.8109m-0.2379-0.9255l2.8422-0.7087m-0.1918-0.8311l-2.8752 0.6111m-0.1712-0.94l2.8885-0.5093m-0.1338-0.8424l-2.9152 0.4097m-0.1033-0.9499l2.9109-0.306m-0.0675-0.8502l-2.9402 0.2056m-0.0345-0.9548l2.9305-0.1024m25.288 24.122l-0.0195-0.5583m0.8909 0.518l-0.0393-0.5622m0.8502-0.0675l0.0581 0.5527m0.8659-0.1072l-0.0778-0.5531m0.8423-0.1338l0.0986 0.559m0.855-0.1741l-0.1154-0.5428m0.9669 0.352l-0.1356-0.5438m0.9779 0.3161l-0.1547-0.5396m0.8163-0.2473l0.1722 0.5298m0.8278-0.2759l-0.1919-0.5273m0.7945-0.3109l0.2087 0.5165m0.5761-0.8506l0.2279 0.5118m0.7907-0.3686l-0.2441-0.5005m1.0191 0.0997l-0.2598-0.4886m1.0258 0.071l-0.2817-0.4879m1.0258 0.0324l-0.2944-0.4712m1.0254-0.0049l-0.3074-0.4556m1.0248-0.0407l-0.3297-0.4537m0.6799-0.5148l0.3414 0.437m0.6797-0.5466l-0.3569-0.4253m1.0146-0.1476l-0.3699-0.4108m1.0051-0.1869l-0.3843-0.398m1.0061-0.2136l-0.4031-0.3893m0.9933-0.2529l-0.4086-0.3679m0.9811-0.2901l-0.4226-0.3546m0.9763-0.3193l-0.4415-0.3449m1.5349 0.0612l-1.02-0.741m2.2537 0.4915l-1.7593-1.1866m2.9518 0.8386l-2.4913-1.5567m0.4388-0.7313l2.5357 1.464m-2.1188-2.2082l2.592 1.3782m-2.2031-2.1374l2.6287 1.2821m0.4135-0.8614l-2.6849-1.1954m3.0501 0.3126l-2.716-1.0974m0.3109-0.7944l2.7571 1.0035m-2.4837-1.8116l2.7863 0.9053m-2.539-1.7216l2.8278 0.8109m0.2379-0.9255l-2.8422-0.7087m3.067-0.22l-2.8752-0.6111m3.0464-0.3289l-2.8885-0.5093m0.1338-0.8424l2.9152 0.4097m0.1033-0.9499l-2.9109-0.306m0.0675-0.8502l2.9402 0.2056m0.0345-0.9548l-2.9305-0.1024"/>
<g class="ring3 anim">
	<path d="m53.082 32.695h0.475c8e-3 -0.231 0.012-0.463 0.012-0.695s-4e-3 -0.463-0.012-0.694h-0.475l-0.343 0.344c2e-3 0.117 6e-3 0.234 6e-3 0.35 0 0.117-4e-3 0.234-6e-3 0.35l0.343 0.345zm-41.818-0.345c-2e-3 -0.117-6e-3 -0.233-6e-3 -0.35s4e-3 -0.233 6e-3 -0.35l-0.345-0.345h-0.474c-8e-3 0.231-0.013 0.463-0.013 0.694 0 0.232 5e-3 0.465 0.013 0.695h0.474l0.345-0.344z"/>
	<path d="m45.275 15c4.305 3.367 7.297 8.333 8.086 14.003l-0.841-0.04c-0.114-0.771-0.268-1.529-0.464-2.27l0.325-0.276c-0.972-3.552-2.845-6.73-5.36-9.274l-0.401 0.143c-0.548-0.544-1.128-1.055-1.731-1.535l0.386-0.751zm-33.794 13.963c0.113-0.77 0.266-1.528 0.462-2.269l-0.325-0.277c0.97-3.552 2.845-6.73 5.361-9.273l0.402 0.142c0.548-0.544 1.126-1.055 1.731-1.535l-0.387-0.751c-4.306 3.367-7.297 8.333-8.086 14.003l0.842-0.04zm41.038 6.074c-0.114 0.771-0.268 1.531-0.463 2.271l0.324 0.276c-0.971 3.553-2.845 6.73-5.359 9.274l-0.403-0.143c-0.546 0.544-1.126 1.055-1.729 1.535l0.386 0.75c4.305-3.365 7.297-8.332 8.086-14.004l-0.842 0.041zm-33.408 13.212c-0.605-0.48-1.183-0.991-1.731-1.535l-0.402 0.143c-2.516-2.544-4.39-5.723-5.361-9.274l0.325-0.277c-0.196-0.741-0.349-1.5-0.462-2.27l-0.842-0.04c0.788 5.672 3.78 10.637 8.086 14.003l0.387-0.75z"/>
</g>
<g class="ring4 anim">
	<path d="m32 50.691c-5.403 0-10.273-2.294-13.686-5.961l2.059-0.729c3.008 2.914 7.107 4.709 11.626 4.709s8.618-1.794 11.626-4.709l2.059 0.729c-3.41 3.667-8.279 5.961-13.684 5.961zm-13.685-31.421l2.059 0.729c3.008-2.914 7.107-4.709 11.626-4.709s8.618 1.795 11.626 4.709l2.059-0.729c-3.412-3.667-8.28-5.961-13.685-5.961-5.403 0-10.272 2.294-13.685 5.961z"/>
</g>
<g class="ring5 anim">
	<path d="m46.737 36.038c-0.324 1.186-0.787 2.313-1.371 3.365l-0.012-7e-3 -0.247 0.066-0.467-0.269c0.545-0.956 0.985-1.979 1.303-3.054l-0.908-0.776c0.276-1.075 0.424-2.202 0.424-3.363s-0.147-2.288-0.423-3.363l0.908-0.775c-0.319-1.076-0.758-2.098-1.303-3.054l0.467-0.269 0.247 0.066 0.012-7e-3c0.584 1.052 1.047 2.18 1.371 3.365l-0.234 0.2c0.323 1.224 0.496 2.511 0.496 3.837 0 1.327-0.173 2.613-0.496 3.838l0.233 0.2zm-25.309 6.603c1.818 1.806 4.095 3.149 6.642 3.838l0.057 0.304c1.153 0.301 2.359 0.471 3.601 0.493v-0.012l0.181-0.18v-0.541c-1.134-7e-3 -2.238-0.145-3.297-0.397l-0.218-1.175c-2.225-0.618-4.218-1.792-5.819-3.363l-1.127 0.399c-0.762-0.803-1.433-1.694-1.996-2.654l-0.467 0.269-0.066 0.246-0.012 7e-3c0.629 1.044 1.38 2.007 2.232 2.869l0.289-0.103zm14.444 4.142l0.056-0.303c2.547-0.69 4.825-2.032 6.643-3.838l0.29 0.102c0.853-0.862 1.603-1.825 2.233-2.869l-0.012-7e-3 -0.066-0.246-0.467-0.269c-0.564 0.961-1.235 1.852-1.997 2.654l-1.127-0.399c-1.602 1.572-3.595 2.746-5.819 3.363l-0.218 1.175c-1.059 0.252-2.162 0.39-3.297 0.397v0.541l0.18 0.18v0.012c1.243-0.022 2.448-0.192 3.601-0.493zm-7.745-29.566l-0.056 0.304c-2.547 0.69-4.825 2.032-6.643 3.838l-0.291-0.103c-0.853 0.862-1.603 1.825-2.232 2.868l0.012 7e-3 0.066 0.246 0.467 0.27c0.564-0.961 1.235-1.852 1.996-2.655l1.127 0.399c1.602-1.572 3.595-2.746 5.82-3.363l0.218-1.175c1.059-0.252 2.162-0.39 3.297-0.397v-0.541l-0.181-0.181v-0.012c-1.241 0.024-2.447 0.194-3.6 0.495zm-9.494 22.186l0.012-7e-3 0.246 0.066 0.467-0.269c-0.544-0.956-0.984-1.979-1.303-3.054l0.908-0.776c-0.276-1.075-0.423-2.202-0.423-3.363s0.147-2.288 0.423-3.363l-0.908-0.775c0.319-1.076 0.758-2.098 1.303-3.054l-0.467-0.269-0.246 0.066-0.012-7e-3c-0.584 1.052-1.047 2.18-1.371 3.365l0.235 0.201c-0.324 1.224-0.497 2.51-0.497 3.836s0.173 2.613 0.496 3.837l-0.235 0.2c0.324 1.187 0.788 2.314 1.372 3.366zm26.45-15.271l0.012-7e-3c-0.629-1.044-1.38-2.007-2.232-2.869l-0.29 0.102c-1.818-1.806-4.097-3.149-6.644-3.838l-0.056-0.304c-1.153-0.301-2.358-0.471-3.599-0.493v0.012l-0.18 0.181v0.541c1.135 7e-3 2.238 0.145 3.297 0.397l0.218 1.175c2.225 0.618 4.218 1.792 5.82 3.364l1.126-0.399c0.762 0.803 1.433 1.694 1.997 2.655l0.467-0.27 0.064-0.247z"/>
</g>
</svg>
